<svg width="28" height="28" viewBox="0 0 28 28" fill="none" xmlns="http://www.w3.org/2000/svg">
<path d="M27.5809 17.3867C25.7111 24.8867 18.1148 29.4511 10.6138 27.5809C3.11598 25.7111 -1.44841 18.1142 0.422209 10.6148C2.29119 3.11387 9.88755 -1.45087 17.3862 0.418928C24.8866 2.28873 29.4507 9.88639 27.5807 17.3868L27.5809 17.3867H27.5809Z" fill="#F7931A"/>
<path fill-rule="evenodd" clip-rule="evenodd" d="M20.1747 12.0054C20.4533 10.1423 19.0349 9.14081 17.0953 8.47272L17.7245 5.949L16.1882 5.5662L15.5757 8.02348C15.1718 7.92275 14.7571 7.82783 14.3449 7.73374L14.9618 5.26024L13.4265 4.87744L12.797 7.40035C12.4627 7.32425 12.1345 7.24904 11.816 7.1698L11.8178 7.16186L9.69923 6.63283L9.29056 8.27366C9.29056 8.27366 10.4303 8.53493 10.4063 8.55101C11.0284 8.70628 11.1409 9.11809 11.1222 9.44451L10.4055 12.3196C10.4483 12.3305 10.5039 12.3462 10.5652 12.3709L10.5206 12.3597C10.4827 12.3503 10.4433 12.3404 10.4028 12.3307L9.3982 16.3583C9.32217 16.5473 9.1292 16.831 8.69425 16.7233C8.70965 16.7456 7.57767 16.4446 7.57767 16.4446L6.81494 18.2032L8.81414 18.7015C9.03304 18.7564 9.24935 18.8128 9.46347 18.8686L9.46357 18.8687C9.61322 18.9077 9.7618 18.9464 9.90945 18.9842L9.27373 21.5368L10.8082 21.9196L11.4378 19.3941C11.857 19.5079 12.2638 19.6128 12.6621 19.7118L12.0346 22.2254L13.571 22.6083L14.2066 20.0604C16.8263 20.5562 18.7961 20.3563 19.6252 17.9868C20.2933 16.0791 19.5919 14.9787 18.2137 14.2611C19.2175 14.0296 19.9736 13.3694 20.1752 12.0056L20.1747 12.0053L20.1747 12.0054ZM16.6647 16.9273C16.2291 18.6775 13.4894 17.9539 12.2359 17.6229C12.1232 17.5931 12.0224 17.5665 11.9365 17.5451L12.7801 14.1633C12.8849 14.1894 13.0129 14.2182 13.1579 14.2507L13.1579 14.2507C14.4544 14.5417 17.1109 15.1379 16.6647 16.9273H16.6647ZM13.4179 12.6812C14.463 12.96 16.7427 13.5685 17.1398 11.9777H17.1399C17.5453 10.3507 15.3298 9.86022 14.2477 9.62065C14.126 9.5937 14.0186 9.56993 13.9309 9.54807L13.1661 12.6152C13.2383 12.6332 13.323 12.6558 13.4179 12.6812Z" fill="white"/>
</svg>
