<svg width="28" height="28" viewBox="0 0 28 28" fill="none" xmlns="http://www.w3.org/2000/svg">
<rect width="28" height="28" rx="4" fill="#FF9500"/>
<path d="M13.9998 23.0084C13.4248 23.0084 12.8832 22.7167 12.4998 22.2084L11.2498 20.5417C11.2248 20.5084 11.1248 20.4667 11.0832 20.4584H10.6665C7.1915 20.4584 5.0415 19.5167 5.0415 14.8334V10.6667C5.0415 6.98335 6.98317 5.04169 10.6665 5.04169H17.3332C21.0165 5.04169 22.9582 6.98335 22.9582 10.6667V14.8334C22.9582 18.5167 21.0165 20.4584 17.3332 20.4584H16.9165C16.8498 20.4584 16.7915 20.4917 16.7498 20.5417L15.4998 22.2084C15.1165 22.7167 14.5748 23.0084 13.9998 23.0084ZM10.6665 6.29169C7.68317 6.29169 6.2915 7.68335 6.2915 10.6667V14.8334C6.2915 18.6 7.58317 19.2084 10.6665 19.2084H11.0832C11.5082 19.2084 11.9915 19.45 12.2498 19.7917L13.4998 21.4584C13.7915 21.8417 14.2082 21.8417 14.4998 21.4584L15.7498 19.7917C16.0248 19.425 16.4582 19.2084 16.9165 19.2084H17.3332C20.3165 19.2084 21.7082 17.8167 21.7082 14.8334V10.6667C21.7082 7.68335 20.3165 6.29169 17.3332 6.29169H10.6665Z" fill="white"/>
<path d="M13.9998 14C13.5332 14 13.1665 13.625 13.1665 13.1666C13.1665 12.7083 13.5415 12.3333 13.9998 12.3333C14.4582 12.3333 14.8332 12.7083 14.8332 13.1666C14.8332 13.625 14.4665 14 13.9998 14Z" fill="white"/>
<path d="M17.3333 14C16.8667 14 16.5 13.625 16.5 13.1666C16.5 12.7083 16.875 12.3333 17.3333 12.3333C17.7917 12.3333 18.1667 12.7083 18.1667 13.1666C18.1667 13.625 17.8 14 17.3333 14Z" fill="white"/>
<path d="M10.6668 14C10.2002 14 9.8335 13.625 9.8335 13.1666C9.8335 12.7083 10.2085 12.3333 10.6668 12.3333C11.1252 12.3333 11.5002 12.7083 11.5002 13.1666C11.5002 13.625 11.1335 14 10.6668 14Z" fill="white"/>
</svg>
