<svg width="24" height="24" viewBox="0 0 24 24" fill="none" xmlns="http://www.w3.org/2000/svg">
<path fill-rule="evenodd" clip-rule="evenodd" d="M1.8002 12C1.8002 6.36665 6.36689 1.79995 12.0002 1.79995C17.6335 1.79995 22.2002 6.36665 22.2002 12C22.2002 17.6333 17.6335 22.2 12.0002 22.2C6.36689 22.2 1.8002 17.6333 1.8002 12ZM12.0002 0.199951C5.48324 0.199951 0.200195 5.48299 0.200195 12C0.200195 18.5169 5.48324 23.7999 12.0002 23.7999C18.5172 23.7999 23.8002 18.5169 23.8002 12C23.8002 5.48299 18.5172 0.199951 12.0002 0.199951ZM12.0002 13.25C12.6906 13.25 13.2502 12.6903 13.2502 12C13.2502 11.3096 12.6906 10.75 12.0002 10.75C11.3099 10.75 10.7502 11.3096 10.7502 12C10.7502 12.6903 11.3099 13.25 12.0002 13.25ZM8.25024 12C8.25024 12.6903 7.6906 13.25 7.00024 13.25C6.30989 13.25 5.75024 12.6903 5.75024 12C5.75024 11.3096 6.30989 10.75 7.00024 10.75C7.6906 10.75 8.25024 11.3096 8.25024 12ZM17.0002 13.25C17.6906 13.25 18.2502 12.6903 18.2502 12C18.2502 11.3096 17.6906 10.75 17.0002 10.75C16.3099 10.75 15.7502 11.3096 15.7502 12C15.7502 12.6903 16.3099 13.25 17.0002 13.25Z" fill="#BB6BD9"/>
</svg>
